<?xml version="1.0" standalone="no"?>
<!DOCTYPE svg PUBLIC "-//W3C//DTD SVG 20010904//EN"
 "http://www.w3.org/TR/2001/REC-SVG-20010904/DTD/svg10.dtd">
<svg version="1.0" xmlns="http://www.w3.org/2000/svg"
 width="512.000000pt" height="512.000000pt" viewBox="0 0 512.000000 512.000000"
 preserveAspectRatio="xMidYMid meet">
<metadata>
Created by potrace 1.14, written by Peter Selinger 2001-2017
</metadata>
<g transform="translate(0.000000,512.000000) scale(0.100000,-0.100000)"
fill="#000000" stroke="none">
<path d="M1840 5067 c-53 -17 -133 -102 -149 -159 -15 -52 -10 -117 12 -170
18 -42 95 -112 139 -124 l33 -10 3 -657 2 -656 -41 -68 c-22 -37 -51 -84 -64
-103 -12 -19 -55 -89 -95 -155 -40 -66 -96 -158 -125 -205 -29 -47 -152 -249
-275 -450 -122 -201 -246 -403 -275 -450 -29 -47 -85 -139 -125 -205 -40 -66
-89 -145 -107 -175 -19 -30 -62 -100 -95 -155 -33 -55 -71 -116 -83 -135 -108
-168 -312 -515 -328 -555 -22 -58 -30 -180 -16 -245 25 -118 114 -237 219
-294 108 -59 -13 -56 2090 -56 1299 0 1948 4 1975 10 126 33 241 124 295 233
37 76 41 93 45 183 6 131 -7 164 -172 433 -62 101 -113 187 -113 192 0 5 -3 9
-8 9 -4 0 -12 9 -17 19 -13 27 -326 540 -556 914 -30 48 -61 100 -70 115 -39
66 -324 532 -353 577 -17 28 -65 104 -104 170 -40 66 -111 182 -158 258 l-84
138 0 655 c0 615 1 655 18 660 113 37 176 120 177 234 0 75 -18 120 -72 173
-68 69 -50 67 -807 66 -466 -1 -692 -5 -716 -12z"/>
</g>
</svg>
